# xmcd
#
# Track frame offsets:
# 150
# 20568
# 45553
# 74730
# 99045
# 130775
# 150738
# 169077
# 190549
# 216761
# 235264
# 270183
#
# Disc length: 3789 seconds
#
#
# Revision: 0
# Processed by: cddbd v1.5.2PL0 Copyright (c) Steve Scherf et al.
# Submitted via: FreeRIP 2.96 
#
DISCID=970ecb0c
DTITLE=Patricia Cornwell - At Risk CD 4 of 4
DYEAR=2006
DGENRE=Audio Book
TTITLE0=37 At Risk
TTITLE1=38 At Risk
TTITLE2=39 At Risk
TTITLE3=40 At Risk
TTITLE4=41 At Risk
TTITLE5=42 At Risk
TTITLE6=43 At Risk
TTITLE7=44 At Risk
TTITLE8=45 At Risk
TTITLE9=46 At Risk
TTITLE10=47 At Risk
TTITLE11=48 At Risk
EXTD=read by Kate Reading
EXTT0=
EXTT1=
EXTT2=
EXTT3=
EXTT4=
EXTT5=
EXTT6=
EXTT7=
EXTT8=
EXTT9=
EXTT10=
EXTT11=
PLAYORDER=
